<svg id="Capa_1" data-name="Capa 1" xmlns="http://www.w3.org/2000/svg" viewBox="0 0 800 800"><defs><style>.cls-1{fill:#fff;}</style></defs><title>PYMO</title><path class="cls-1" d="M261.63,320.17H65.77a14.94,14.94,0,0,0-14.95,14.95v16.09a14.93,14.93,0,0,0,14.95,14.94h40.37a8.11,8.11,0,0,1,6.13,2.73,7.59,7.59,0,0,1,2,5.92c-3.18,30.12-13.49,72.54-44.46,103.5a15,15,0,0,0,0,21.15l11.38,11.37a15,15,0,0,0,21.14,0c42.65-42.68,55.32-98.35,58.41-137.5.68-8.32,16.15-7.68,16.15.95v124a14.94,14.94,0,0,0,15,14.95h16.08a15,15,0,0,0,15-14.95V374.26a8.1,8.1,0,0,1,8.09-8.11h30.71a14.93,14.93,0,0,0,14.94-14.94V335.12A14.94,14.94,0,0,0,261.63,320.17Z"/><path class="cls-1" d="M307.23,519.51q-7.68,0-11.53-4.27c-2.56-2.85-3.66-6.83-3.27-12L308.09,334.7q1.43-14.52,16-14.53h23.63q12.82,0,17.66,12l45.28,112.19,45.56-112.19q4.83-12,17.65-12h23.64c4.55,0,8.26,1.29,11.1,3.85s4.37,6.12,4.56,10.68l15.66,168.58q.86,7.7-3,12t-11.53,4.27H492.9q-7.12,0-11.39-3.84c-2.84-2.57-4.37-6.12-4.56-10.68l-7.68-92.27-36.45,92.55q-4.56,12.26-17.66,12.25h-8.83q-13.09,0-17.65-12.25l-36.45-92.55L344.54,505c-.38,4.56-2,8.11-4.84,10.68s-6.65,3.84-11.39,3.84Z"/><path class="cls-1" d="M657.21,525.77a113.64,113.64,0,0,1-43.28-8.11,100.51,100.51,0,0,1-34-22.36,98.67,98.67,0,0,1-21.64-33,106,106,0,0,1,0-78.59,98.81,98.81,0,0,1,21.64-33,100.64,100.64,0,0,1,34-22.35,119.43,119.43,0,0,1,86.57,0,102.34,102.34,0,0,1,34.17,22.35,97.83,97.83,0,0,1,21.78,33,106,106,0,0,1,0,78.59,97.69,97.69,0,0,1-21.78,33,102.21,102.21,0,0,1-34.17,22.36A113.76,113.76,0,0,1,657.21,525.77Zm0-45.27a54.41,54.41,0,0,0,22.07-4.42,49.2,49.2,0,0,0,17.23-12.38,56.76,56.76,0,0,0,11-18.51,66,66,0,0,0,0-44.43,56.76,56.76,0,0,0-11-18.51,49.2,49.2,0,0,0-17.23-12.38,54.41,54.41,0,0,0-22.07-4.42,60,60,0,0,0-18.22,3,46.35,46.35,0,0,0-17.23,10.11,58.57,58.57,0,0,0-13.24,18.51A59.65,59.65,0,0,0,603.11,423,64.36,64.36,0,0,0,607,445.19a56.76,56.76,0,0,0,11,18.51,49.2,49.2,0,0,0,17.23,12.38A54.45,54.45,0,0,0,657.21,480.5Z"/></svg>